<svg width="609" height="129" viewBox="0 0 609 129" fill="none" xmlns="http://www.w3.org/2000/svg">
<path d="M264.834 1.6593C265.772 1.65886 266.71 1.65843 267.676 1.65798C270.744 1.66005 273.811 1.68331 276.879 1.70691C279.019 1.71251 281.158 1.71678 283.298 1.71977C288.905 1.73118 294.513 1.76061 300.12 1.79389C305.852 1.82468 311.583 1.8383 317.315 1.85339C328.543 1.88549 339.772 1.93822 351 1.99988C351 9.25988 351 16.5199 351 23.9999C348.184 24.004 345.368 24.0081 342.467 24.0123C333.158 24.0295 323.851 24.074 314.543 24.132C308.9 24.1662 303.257 24.1914 297.614 24.1954C292.167 24.1997 286.721 24.2282 281.275 24.2733C279.197 24.2863 277.12 24.2906 275.043 24.286C272.131 24.2811 269.222 24.3072 266.31 24.3405C265.453 24.3318 264.595 24.3232 263.712 24.3143C257.768 24.428 255.149 25.7127 251 29.9999C248.308 34.0622 248.336 38.2769 249 42.9999C251.259 47.5178 253.517 49.7738 258 51.9999C261.086 52.4986 261.086 52.4986 264.395 52.5116C265.597 52.547 266.799 52.5825 268.037 52.619C269.283 52.6416 270.529 52.6641 271.813 52.6874C273.078 52.7215 274.343 52.7557 275.647 52.7909C278.764 52.8732 281.882 52.9382 285 52.9999C285 60.5899 285 68.1799 285 75.9999C282.164 76.056 282.164 76.056 279.27 76.1132C276.784 76.1788 274.298 76.2453 271.813 76.3124C270.567 76.3349 269.321 76.3575 268.037 76.3807C266.835 76.4162 265.633 76.4516 264.395 76.4882C262.737 76.5274 262.737 76.5274 261.046 76.5675C256.719 77.1818 254.053 78.8014 251.188 82.0624C249.43 86.4104 249.341 90.376 250 94.9999C252.391 100.056 254.878 101.95 260 104C263.015 104.426 265.994 104.438 269.035 104.432C270.368 104.448 270.368 104.448 271.727 104.463C274.649 104.493 277.57 104.503 280.492 104.512C282.524 104.528 284.556 104.547 286.587 104.566C291.924 104.613 297.26 104.643 302.596 104.669C308.046 104.699 313.496 104.746 318.946 104.791C329.63 104.877 340.315 104.943 351 105C351 112.26 351 119.52 351 127C339.039 127.153 327.079 127.302 315.118 127.443C309.564 127.509 304.011 127.576 298.458 127.648C293.102 127.717 287.746 127.782 282.391 127.843C280.344 127.867 278.297 127.893 276.25 127.92C273.391 127.959 270.532 127.991 267.673 128.022C266.393 128.041 266.393 128.041 265.087 128.061C259.228 128.114 259.228 128.114 257 127C255.969 126.897 254.938 126.794 253.875 126.687C244.56 125.035 237.184 119.331 231.391 111.949C225.58 103.147 224.946 93.2783 226 82.9999C227.558 76.0178 230.561 70.5486 235 64.9999C233.856 62.7009 232.698 60.4104 231.528 58.1249C231.003 57.0936 230.478 56.0624 229.938 54.9999C229.41 53.9686 228.883 52.9374 228.34 51.8749C224.497 43.6283 225.013 34.1888 227.688 25.6249C231.389 15.9006 236.914 10.2504 246 4.99988C252.326 2.30858 258.011 1.57425 264.834 1.6593Z" fill="#D1143E"/>
<path d="M0 1.00015C12.6225 0.9589 25.245 0.91765 38.25 0.87515C42.2129 0.856942 46.1758 0.838734 50.2588 0.819975C55.1558 0.810941 55.1558 0.810941 57.4594 0.809263C59.0439 0.806223 60.6284 0.799254 62.2128 0.788999C92.3629 0.603881 92.3629 0.603881 103.102 11.0431C110.335 19.7384 112.738 28.1192 112.375 39.383C111.404 48.7526 107.182 55.9206 100 62.0001C92.3857 66.701 85.7763 69.1322 76.8328 69.1137C75.6119 69.1136 74.391 69.1135 73.1331 69.1134C71.8246 69.1083 70.5161 69.1031 69.168 69.0978C67.8075 69.0959 66.447 69.0945 65.0865 69.0935C61.5174 69.0897 57.9484 69.0799 54.3794 69.0688C50.7328 69.0586 47.0861 69.054 43.4395 69.049C36.293 69.0383 29.1465 69.0207 22 69.0002C22 77.5802 22 86.1602 22 95.0002C14.74 95.0002 7.48 95.0002 0 95.0002C0 63.9802 0 32.9601 0 1.00015ZM22 24.0002C22 30.9302 22 37.8601 22 45.0001C26.0941 45.6825 29.4809 46.1367 33.543 46.193C35.1349 46.2171 35.1349 46.2171 36.759 46.2417C41.5708 46.2865 46.3824 46.3272 51.1943 46.3502C53.7315 46.3668 56.2687 46.3942 58.8057 46.4323C62.4749 46.487 66.143 46.5089 69.8125 46.5236C70.9439 46.5463 72.0753 46.5689 73.241 46.5923C79.9274 46.6531 79.9274 46.6531 85.6719 43.6276C87.961 41.0441 89.2265 39.3518 90 36.0001C89.6717 32.4988 88.0789 29.7959 86 27.0002C80.1562 22.8188 73.5955 23.6213 66.7266 23.7072C64.8082 23.7135 64.8082 23.7135 62.8512 23.72C59.4677 23.734 56.0848 23.7609 52.7014 23.7942C49.2424 23.825 45.7833 23.8386 42.3242 23.8537C35.5493 23.8867 28.7747 23.9385 22 24.0002Z" fill="#E55D00"/>
<path d="M118 1.00024C121.646 0.971369 125.291 0.953488 128.937 0.937744C130.499 0.925176 130.499 0.925176 132.092 0.912354C133.576 0.90752 133.576 0.90752 135.09 0.902588C136.464 0.894733 136.464 0.894733 137.867 0.886719C140 1.00024 140 1.00024 141 2.00024C141.104 4.7628 141.143 7.50118 141.142 10.2644C141.147 11.5645 141.147 11.5645 141.152 12.8908C141.16 14.7804 141.165 16.67 141.168 18.5597C141.176 21.5526 141.191 24.5453 141.21 27.5382C141.262 36.0504 141.31 44.5626 141.326 53.075C141.336 58.2764 141.365 63.4774 141.407 68.6787C141.419 70.6601 141.425 72.6416 141.422 74.6231C141.42 77.4024 141.442 80.1805 141.47 82.9597C141.463 83.7745 141.457 84.5894 141.45 85.4289C141.542 91.0637 142.745 94.3685 146 99.0002C150.843 102.972 155.44 103.6 161.558 103.61C162.348 103.626 163.137 103.643 163.95 103.66C166.446 103.708 168.941 103.73 171.437 103.75C173.14 103.778 174.842 103.808 176.545 103.84C180.697 103.917 184.847 103.958 189 104C189 111.26 189 118.52 189 126C183.646 126.093 178.295 126.172 172.941 126.22C171.125 126.24 169.309 126.267 167.492 126.302C153.36 126.566 142.48 125.843 131.293 116.274C122.375 107.432 118.069 97.3776 117.88 84.8176C117.877 83.2542 117.879 81.6908 117.886 80.1274C117.886 79.2681 117.886 78.4088 117.886 77.5234C117.887 74.7045 117.894 71.8856 117.902 69.0667C117.904 67.1037 117.905 65.1407 117.906 63.1777C117.91 58.0272 117.92 52.8767 117.931 47.7261C117.941 42.464 117.946 37.2018 117.951 31.9397C117.962 21.6265 117.979 11.3134 118 1.00024Z" fill="#E55D00"/>
<path d="M197 105C204.26 105 211.52 105 219 105C219 112.26 219 119.52 219 127C211.74 127 204.48 127 197 127C197 119.74 197 112.48 197 105Z" fill="#D1143E"/>
<path d="M0 105C7.26 105 14.52 105 22 105C22 112.26 22 119.52 22 127C14.74 127 7.48 127 0 127C0 119.74 0 112.48 0 105Z" fill="#D1143E"/>
<path d="M567 3.70053C568.09 4.14139 569.181 4.58225 570.304 5.03646C585.803 11.9888 597.451 24.0108 604 39.7005C610.284 57.5765 609.003 74.5716 601.441 91.8841C593.819 106.776 579.964 117.56 564.324 122.701C549.491 127.162 533.199 126.982 519.066 119.849C518.043 119.28 518.043 119.28 517 118.701C516.204 118.28 515.409 117.86 514.589 117.427C499.678 109.084 489.549 96.6538 484.656 80.3216C484.439 79.4567 484.223 78.5917 484 77.7005C483.81 76.958 483.621 76.2155 483.425 75.4505C480.539 56.8081 484.629 40.238 495 24.7005C503.499 13.1967 516.58 4.68054 530.484 1.20443C542.218 -0.477488 555.943 -0.999403 567 3.70053ZM513.961 35.9896C505.858 46.8506 503.189 58.3637 505 71.7005C508.24 83.9709 515.161 92.3742 526 98.7005C534.993 103.374 544.454 104.895 554.382 102.564C566.376 98.6077 574.503 92.4407 581 81.7005C586.238 71.2545 586.877 62 584 50.7005C578.967 38.1274 571.658 30.1543 559.437 24.263C543.675 18.5201 525.008 23.588 513.961 35.9896Z" fill="#D1143E"/>
<path d="M361 3.70062C386.098 1.45335 386.098 1.45335 391.855 6.10297C394.288 8.73664 396.118 11.7064 397.878 14.8188C399.789 18.0247 402.205 20.8175 404.562 23.7006C405.47 24.8564 406.374 26.0153 407.273 27.1772C407.719 27.7524 408.165 28.3277 408.624 28.9203C412.426 33.8395 416.22 38.7645 420 43.7006C424.227 39.6999 427.697 35.3499 431.188 30.7006C432.336 29.1849 433.484 27.6692 434.633 26.1537C435.199 25.4042 435.765 24.6546 436.349 23.8823C438.738 20.7263 441.148 17.587 443.562 14.4506C444.327 13.4555 445.091 12.4603 445.879 11.435C446.579 10.5327 447.279 9.63031 448 8.70062C448.574 7.8293 449.148 6.95797 449.739 6.06024C452 3.70062 452 3.70062 454.933 3.133C456.043 3.15918 457.153 3.18536 458.297 3.21234C459.502 3.22845 460.707 3.24457 461.949 3.26117C463.203 3.30306 464.458 3.34496 465.75 3.38812C467.655 3.42196 467.655 3.42196 469.598 3.45648C472.733 3.51542 475.866 3.59765 479 3.70062C475.95 9.40117 472.332 14.3354 468.312 19.3881C467.053 20.9891 465.793 22.5906 464.535 24.1928C463.927 24.9659 463.319 25.739 462.692 26.5356C459.785 30.2556 456.972 34.0433 454.152 37.8295C451.732 41.0576 449.276 44.2556 446.812 47.4506C446.393 47.9975 445.974 48.5444 445.543 49.1078C443.723 51.4817 441.888 53.8376 440 56.1577C439.443 56.8525 438.886 57.5473 438.312 58.2631C437.595 59.1313 437.595 59.1313 436.863 60.017C435.809 61.6698 435.809 61.6698 436.279 63.5749C437.085 65.9513 438.108 67.4352 439.668 69.3959C440.224 70.1023 440.78 70.8087 441.354 71.5366C441.959 72.292 442.564 73.0473 443.188 73.8256C444.473 75.4531 445.758 77.0807 447.043 78.7084C448.032 79.9542 448.032 79.9542 449.041 81.225C452.053 85.0304 455.026 88.8657 458 92.7006C461.619 97.3606 465.245 102.015 468.887 106.658C469.523 107.47 470.159 108.283 470.814 109.121C472.031 110.674 473.25 112.227 474.471 113.777C475.02 114.48 475.57 115.183 476.137 115.908C476.618 116.521 477.1 117.134 477.596 117.766C479.215 119.997 480.611 122.321 482 124.701C458.167 126.739 458.167 126.739 451.854 123.65C448.611 120.889 446.773 117.363 444.951 113.565C443.359 110.445 441.218 107.747 439.125 104.951C438.303 103.8 437.486 102.646 436.672 101.49C436.248 100.889 435.825 100.289 435.389 99.6703C434.93 99.0203 434.472 98.3703 434 97.7006C432.901 96.1458 431.802 94.5912 430.703 93.0366C427.799 88.9268 424.899 84.8144 422 80.7006C417.912 82.5456 416.121 84.826 413.438 88.4506C412.55 89.6348 411.662 90.8184 410.773 92.0014C410.317 92.6132 409.86 93.225 409.39 93.8554C407.158 96.8181 404.861 99.7277 402.562 102.638C401.65 103.797 400.737 104.956 399.824 106.115C399.366 106.696 398.907 107.278 398.435 107.877C396.919 109.803 395.406 111.732 393.895 113.662C393.389 114.306 392.884 114.951 392.363 115.615C391.388 116.859 390.414 118.103 389.44 119.347C386.112 123.589 386.112 123.589 385 124.701C383.073 124.788 381.143 124.808 379.215 124.798C377.46 124.793 377.46 124.793 375.67 124.789C373.822 124.776 373.822 124.776 371.938 124.763C370.084 124.756 370.084 124.756 368.193 124.749C365.129 124.738 362.064 124.721 359 124.701C362.742 118.892 366.695 113.436 371.125 108.138C376.048 102.166 380.782 96.0913 385.385 89.8693C388.145 86.146 390.953 82.4696 393.828 78.8334C394.47 78.0199 395.112 77.2063 395.774 76.3681C397.025 74.7872 398.282 73.2105 399.545 71.6386C400.111 70.9217 400.678 70.2049 401.262 69.4662C401.767 68.8349 402.272 68.2036 402.792 67.5532C404.104 65.5414 404.729 64.087 405 61.7006C403.643 59.5332 402.311 57.7127 400.688 55.7631C399.748 54.5915 398.81 53.4196 397.871 52.2475C397.389 51.6539 396.907 51.0603 396.41 50.4487C394.307 47.8412 392.281 45.1765 390.25 42.5131C386.189 37.2247 382.096 31.9618 378 26.7006C376.229 24.4236 374.457 22.1465 372.687 19.8691C371.591 18.4609 370.496 17.053 369.399 15.6454C367.972 13.8115 366.548 11.9752 365.125 10.1381C364.323 9.10558 363.521 8.07304 362.695 7.00922C361 4.70062 361 4.70062 361 3.70062Z" fill="#E55D00"/>
<path d="M552 48.7005C555.546 50.6565 558.183 53.0663 560 56.7005C561.037 66.5948 561.037 66.5948 558.989 70.7552C556.307 73.9919 553.516 76.4928 549.293 77.0716C539.877 77.273 539.877 77.273 536.375 74.388C531.892 69.3148 531.514 66.2561 531.61 59.6575C532.199 55.1999 533.668 53.645 537 50.7005C541.686 47.5769 546.524 47.8667 552 48.7005Z" fill="#E55D00"/>
<path d="M294 53C301.26 53 308.52 53 316 53C316 60.26 316 67.52 316 75C308.74 75 301.48 75 294 75C294 67.74 294 60.48 294 53Z" fill="#E55D00"/>
</svg>
